<?xml version="1.0" standalone="no"?>
<!DOCTYPE svg PUBLIC "-//W3C//DTD SVG 20010904//EN"
 "http://www.w3.org/TR/2001/REC-SVG-20010904/DTD/svg10.dtd">
<svg version="1.0" xmlns="http://www.w3.org/2000/svg"
 width="701.000000pt" height="1143.000000pt" viewBox="0 0 701.000000 1143.000000"
 preserveAspectRatio="xMidYMid meet">
<g transform="translate(0.000000,1143.000000) scale(0.100000,-0.100000)"
fill="#f36" stroke="none">
<path d="M3555 11390 c-3 -5 -23 -10 -43 -10 -20 -1 -55 -7 -77 -15 -22 -8
-82 -20 -134 -25 -52 -6 -99 -15 -106 -20 -6 -5 -43 -14 -81 -20 -68 -11 -122
-19 -246 -41 -35 -6 -97 -14 -138 -19 -131 -15 -306 -47 -335 -60 -22 -11
-268 -60 -299 -60 -21 0 -166 -68 -166 -79 0 -3 -15 -12 -32 -19 -18 -7 -51
-22 -73 -34 -22 -11 -87 -45 -145 -74 -58 -29 -111 -58 -118 -65 -8 -6 -88
-49 -180 -95 -91 -46 -168 -88 -171 -92 -4 -4 -32 -20 -64 -36 -31 -15 -63
-33 -70 -39 -6 -7 -33 -23 -59 -36 -26 -13 -49 -30 -53 -38 -4 -13 9 -14 97
-8 57 4 136 8 175 10 40 2 101 6 136 10 l62 7 26 -39 c70 -104 94 -138 101
-141 4 -2 8 -9 8 -16 0 -7 8 -21 18 -32 9 -10 30 -37 46 -59 56 -76 86 -90
124 -55 12 11 24 20 27 20 7 0 97 60 105 70 3 3 34 25 70 49 36 24 72 50 80
58 30 28 135 103 146 103 5 0 19 8 30 18 29 25 61 42 81 42 19 0 73 16 121 37
18 8 65 21 104 29 40 8 77 19 83 23 15 13 183 44 199 38 8 -3 30 -1 48 4 18 5
51 12 73 14 43 5 155 21 220 31 22 3 145 8 274 11 210 4 239 2 300 -16 36 -10
93 -22 125 -25 33 -4 64 -11 70 -15 6 -5 34 -12 61 -16 73 -10 175 -35 213
-51 17 -8 67 -22 110 -30 42 -8 95 -23 117 -33 22 -9 76 -28 120 -40 119 -33
198 -75 233 -125 17 -23 42 -51 56 -61 14 -11 26 -25 26 -31 0 -6 17 -28 38
-50 20 -21 53 -60 72 -86 96 -127 113 -148 121 -148 5 0 9 -7 9 -15 0 -8 18
-33 40 -55 22 -22 40 -44 40 -49 0 -5 14 -22 30 -38 17 -15 30 -32 30 -38 0
-6 18 -29 40 -53 22 -23 40 -46 40 -51 0 -5 13 -23 29 -40 16 -17 32 -42 35
-55 3 -14 12 -31 20 -39 8 -8 20 -43 26 -78 6 -35 15 -70 20 -79 4 -8 10 -31
13 -50 3 -19 9 -55 15 -80 11 -49 25 -138 43 -270 6 -47 15 -103 19 -125 5
-22 9 -72 9 -111 0 -41 9 -109 22 -155 17 -69 20 -104 17 -196 -2 -64 -9 -117
-16 -125 -6 -8 -16 -39 -22 -69 -7 -30 -18 -69 -27 -87 -8 -19 -17 -50 -19
-70 -2 -20 -8 -46 -13 -57 -18 -43 -33 -92 -43 -135 -5 -25 -16 -59 -24 -77
-8 -18 -17 -51 -20 -75 -3 -24 -10 -47 -15 -53 -5 -5 -9 -16 -9 -25 0 -9 -8
-34 -19 -56 -10 -21 -24 -66 -30 -99 -13 -62 -23 -98 -48 -152 -7 -18 -25 -68
-38 -110 -29 -93 -41 -117 -77 -156 -16 -16 -28 -33 -28 -37 0 -5 -13 -24 -30
-42 -16 -18 -30 -37 -30 -43 0 -5 -13 -23 -30 -38 -16 -16 -30 -34 -30 -41 0
-7 -12 -21 -27 -33 -16 -11 -35 -33 -43 -49 -8 -16 -23 -35 -32 -42 -10 -7
-31 -32 -47 -55 -16 -24 -43 -58 -60 -76 -17 -18 -31 -38 -31 -43 0 -6 -16
-26 -36 -46 -20 -20 -48 -52 -63 -72 -14 -19 -37 -46 -52 -60 -31 -30 -109
-134 -109 -145 0 -4 -8 -15 -18 -24 -22 -20 -82 -106 -82 -118 0 -5 -11 -19
-24 -30 -13 -11 -31 -34 -41 -49 -22 -36 -67 -74 -96 -79 -28 -6 -80 19 -144
67 -27 21 -53 38 -56 38 -4 0 -20 11 -35 24 -100 85 -139 116 -145 116 -3 0
-26 18 -49 40 -23 22 -46 40 -51 40 -5 0 -32 23 -60 50 -28 28 -55 50 -60 50
-6 0 -29 20 -52 43 -23 24 -59 57 -80 72 -21 16 -59 50 -85 77 -26 26 -51 48
-55 48 -5 0 -39 27 -75 60 -37 33 -71 60 -75 60 -5 0 -36 27 -69 60 -34 33
-65 60 -70 60 -5 0 -28 20 -51 43 -23 24 -60 57 -82 73 -22 16 -58 48 -80 70
-22 23 -62 59 -90 80 -27 20 -72 59 -99 86 -26 26 -51 48 -55 48 -4 0 -40 32
-80 70 -40 39 -77 70 -82 70 -5 0 -32 24 -61 53 -29 30 -71 67 -93 83 -22 16
-60 51 -85 77 -24 27 -63 62 -87 78 -60 41 -168 153 -216 224 -22 33 -44 62
-49 63 -4 2 -8 9 -8 15 0 6 -7 18 -15 27 -16 18 -185 348 -185 362 0 8 -22 58
-73 168 -9 19 -27 53 -39 75 -13 22 -29 58 -37 80 -15 46 -71 168 -80 175 -7
5 -30 87 -63 215 -21 85 -21 186 2 305 5 30 14 102 18 159 10 124 19 136 96
127 26 -3 53 -9 60 -14 6 -5 27 -14 46 -22 19 -7 71 -30 116 -51 81 -39 151
-56 178 -46 13 5 12 12 -6 47 -12 22 -25 40 -30 40 -4 0 -8 9 -8 20 0 11 -4
20 -10 20 -5 0 -10 5 -10 10 0 12 -101 163 -112 168 -5 2 -8 7 -8 12 0 14 -62
110 -71 110 -5 0 -9 6 -9 14 0 8 -13 27 -30 43 -16 15 -30 33 -30 39 0 6 -13
25 -30 42 -17 18 -30 37 -30 43 0 6 -36 47 -80 91 l-80 80 -122 -6 c-139 -6
-329 -22 -433 -36 -38 -5 -110 -13 -160 -18 -49 -6 -117 -17 -150 -26 -32 -9
-96 -16 -140 -16 -44 0 -108 -7 -140 -16 -33 -9 -82 -19 -109 -22 -63 -9 -82
-34 -47 -63 13 -10 35 -22 50 -26 14 -3 32 -12 39 -20 7 -7 23 -13 34 -13 36
0 142 -30 195 -56 68 -33 84 -73 64 -167 -8 -34 -15 -71 -16 -82 -2 -12 -10
-42 -19 -68 -9 -26 -16 -56 -16 -67 0 -22 -45 -165 -60 -192 -6 -10 -10 -25
-10 -33 0 -8 -4 -23 -9 -33 -5 -9 -19 -51 -32 -92 -12 -41 -26 -79 -31 -84 -4
-6 -8 -18 -8 -28 0 -10 -4 -26 -9 -36 -5 -9 -19 -51 -32 -92 -12 -41 -26 -79
-31 -84 -4 -6 -8 -19 -8 -31 0 -12 -4 -25 -10 -31 -5 -5 -15 -37 -21 -69 -6
-33 -15 -65 -20 -71 -5 -6 -22 -63 -37 -125 -26 -102 -28 -123 -21 -201 8 -89
30 -171 53 -198 7 -8 25 -55 41 -103 15 -49 34 -95 41 -102 8 -7 14 -19 14
-25 0 -6 9 -30 20 -52 11 -23 20 -48 20 -55 0 -7 5 -13 10 -13 6 0 10 -8 10
-17 0 -10 14 -45 30 -78 17 -33 30 -63 30 -68 0 -5 18 -46 40 -92 22 -46 40
-88 40 -94 0 -6 4 -19 9 -29 5 -9 14 -28 20 -42 6 -14 20 -38 30 -55 11 -16
20 -40 20 -52 1 -12 5 -24 10 -27 4 -3 11 -19 14 -35 3 -16 12 -35 19 -43 18
-19 38 -56 38 -69 0 -17 80 -179 112 -226 15 -23 28 -46 28 -51 0 -5 7 -15 15
-22 9 -7 22 -27 31 -45 16 -34 115 -135 132 -135 6 0 33 -23 61 -50 28 -28 57
-50 64 -50 7 0 21 -12 32 -27 11 -14 32 -34 47 -43 15 -9 50 -36 78 -61 87
-74 124 -104 160 -130 19 -13 52 -41 74 -61 21 -21 43 -38 50 -38 6 0 33 -23
59 -50 27 -28 52 -50 56 -50 4 0 27 -18 50 -40 23 -22 48 -40 55 -40 8 0 26
-16 41 -35 14 -20 44 -47 66 -61 22 -13 59 -43 82 -64 23 -22 46 -40 51 -40 4
0 27 -20 50 -44 23 -24 56 -51 73 -60 17 -8 40 -28 51 -44 11 -15 33 -34 49
-42 15 -8 44 -31 63 -51 19 -20 51 -47 70 -60 19 -13 40 -28 45 -34 6 -6 33
-29 60 -50 28 -22 63 -52 78 -67 16 -16 32 -28 37 -28 5 0 32 -22 60 -50 28
-27 55 -50 60 -50 13 0 130 -117 130 -129 0 -10 -70 -71 -82 -71 -12 0 -163
-103 -171 -116 -4 -8 -27 -23 -50 -35 -81 -39 -267 -165 -267 -179 0 -6 -4
-10 -9 -10 -12 0 -163 -99 -176 -116 -5 -7 -29 -22 -52 -34 -23 -12 -67 -46
-98 -76 -31 -30 -61 -54 -67 -54 -14 0 -865 -853 -903 -905 -16 -22 -44 -55
-62 -74 -18 -19 -33 -39 -33 -46 0 -6 -13 -24 -30 -40 -16 -16 -30 -32 -30
-37 0 -4 -13 -22 -30 -40 -16 -17 -30 -35 -30 -40 0 -5 -13 -29 -30 -53 -16
-24 -30 -50 -30 -58 0 -8 -8 -25 -18 -38 -20 -27 -122 -231 -122 -246 0 -4
-13 -35 -30 -68 -16 -33 -30 -65 -30 -71 0 -6 -7 -25 -16 -43 -13 -26 -15 -57
-10 -189 8 -215 16 -266 75 -456 14 -46 21 -95 21 -151 0 -129 -4 -139 -58
-154 -26 -7 -64 -21 -85 -32 -22 -10 -46 -19 -55 -20 -26 -1 -77 -34 -77 -49
0 -25 67 -51 182 -71 63 -11 122 -24 131 -28 30 -16 100 -32 180 -41 42 -5 91
-16 107 -24 17 -9 46 -16 65 -16 19 0 100 -14 180 -30 156 -32 250 -38 272
-17 7 7 34 27 59 45 26 17 58 45 72 62 14 16 31 30 36 30 6 0 43 32 82 70 38
39 74 70 79 70 5 0 44 36 88 80 44 44 85 80 90 80 12 0 232 209 232 221 0 4
-63 8 -139 11 -77 2 -143 7 -148 12 -12 12 -9 279 5 386 6 52 16 128 21 168 6
41 15 79 21 86 5 8 15 40 21 72 6 33 15 64 20 70 5 6 18 57 29 115 24 122 24
123 112 256 38 56 68 107 68 112 0 5 4 11 8 13 5 1 36 44 70 93 34 50 71 101
82 115 11 14 20 31 20 37 0 7 11 20 25 29 14 9 28 27 31 39 3 13 14 31 25 41
10 9 19 23 19 30 0 8 10 20 23 28 12 9 47 50 77 92 30 42 70 93 87 113 18 20
33 42 33 48 0 7 11 20 24 29 14 8 38 37 55 62 17 26 39 53 50 60 12 6 32 29
45 50 33 50 278 297 349 350 31 23 57 46 57 50 0 17 69 37 125 37 73 0 148
-34 217 -97 17 -16 35 -28 40 -28 5 0 32 -22 60 -50 28 -27 54 -50 59 -50 5 0
26 -15 47 -34 67 -62 146 -126 155 -126 5 0 25 -18 46 -40 20 -22 42 -40 47
-40 6 0 30 -18 54 -40 24 -22 48 -40 53 -40 5 0 17 -8 26 -18 9 -11 35 -31 59
-46 24 -15 45 -33 48 -41 3 -7 21 -21 40 -30 19 -9 34 -20 34 -25 0 -4 15 -18
33 -29 17 -11 43 -31 57 -43 14 -13 41 -35 60 -48 19 -13 48 -37 63 -52 16
-15 33 -28 38 -28 5 0 31 -22 59 -50 28 -27 57 -50 65 -50 9 0 18 -6 21 -14 3
-8 23 -26 45 -40 21 -15 51 -37 66 -51 53 -47 115 -95 122 -95 12 0 101 -87
101 -97 0 -6 9 -18 20 -28 11 -10 20 -23 20 -30 0 -7 12 -25 28 -41 15 -16 44
-63 65 -104 39 -79 68 -132 77 -140 9 -8 210 -414 210 -423 0 -5 25 -61 56
-125 l57 -115 -12 -62 c-6 -34 -11 -78 -11 -96 -1 -19 -7 -52 -15 -74 -8 -22
-20 -70 -26 -107 -6 -37 -19 -90 -29 -118 -10 -28 -17 -57 -14 -64 6 -15 -41
-208 -61 -252 -8 -17 -17 -49 -19 -70 -3 -22 -11 -54 -18 -71 -16 -37 -242
-271 -282 -293 -15 -8 -38 -27 -51 -42 -13 -15 -28 -28 -32 -28 -5 0 -22 -13
-38 -30 -16 -16 -34 -30 -40 -30 -7 0 -24 -11 -38 -24 -15 -14 -40 -33 -57
-42 -16 -10 -30 -22 -30 -26 0 -4 -5 -8 -11 -8 -6 0 -23 -8 -37 -19 -44 -31
-102 -61 -117 -61 -8 0 -30 -9 -50 -20 -20 -11 -42 -20 -50 -20 -9 0 -23 -4
-33 -10 -9 -5 -64 -19 -122 -30 -57 -12 -109 -25 -115 -30 -5 -5 -55 -16 -110
-25 -55 -9 -120 -21 -145 -26 -322 -74 -416 -89 -525 -85 -98 4 -171 19 -191
39 -4 4 -16 7 -26 7 -10 0 -26 4 -36 9 -18 9 -63 28 -97 41 -47 18 -141 44
-152 42 -13 -3 -268 80 -323 105 -89 39 -100 46 -100 60 0 8 -117 131 -260
274 -143 143 -260 264 -260 269 0 14 -172 190 -186 190 -18 0 -118 -97 -179
-175 -27 -33 -93 -104 -149 -159 l-100 -98 -51 7 c-27 3 -57 7 -65 7 -38 0
-182 30 -208 44 -20 10 -66 14 -148 15 -121 1 -133 -3 -101 -35 7 -7 23 -29
37 -49 14 -20 33 -40 43 -43 9 -3 46 -33 81 -67 77 -74 142 -129 176 -148 13
-8 38 -29 55 -47 16 -18 45 -43 64 -54 18 -12 54 -41 78 -65 25 -23 49 -43 54
-43 6 0 37 -27 70 -60 33 -33 66 -60 74 -60 7 0 23 -13 33 -28 11 -15 33 -34
48 -42 15 -8 39 -25 53 -38 29 -26 123 -73 196 -97 28 -9 69 -25 91 -35 23
-11 71 -24 108 -31 36 -6 69 -15 72 -20 3 -5 16 -9 29 -9 13 0 26 -4 29 -9 3
-4 31 -16 63 -26 32 -10 72 -23 88 -30 39 -17 130 -42 179 -50 21 -3 46 -10
55 -14 9 -5 34 -14 56 -20 22 -7 49 -16 60 -20 11 -5 38 -14 60 -20 22 -7 49
-16 60 -20 11 -5 38 -14 60 -20 22 -7 56 -20 75 -29 19 -9 58 -19 85 -23 28
-4 75 -13 105 -19 30 -7 77 -9 105 -5 28 3 120 10 205 16 637 40 1025 73 1160
98 53 10 370 162 467 224 24 15 46 27 51 27 4 0 17 8 28 18 10 10 41 28 68 41
42 19 251 153 266 171 3 3 27 16 53 30 27 13 54 31 60 40 7 8 35 26 62 40 48
23 135 77 145 90 3 3 22 14 42 23 21 10 57 32 80 50 24 18 68 45 99 60 32 15
62 34 69 42 7 8 18 15 26 15 7 0 19 6 26 13 7 7 40 30 73 51 33 22 77 53 97
70 21 17 53 44 73 59 22 19 39 43 46 70 6 23 17 56 24 72 8 17 16 50 20 75 4
25 11 50 16 56 5 6 14 35 19 65 6 30 17 69 26 88 9 18 17 43 19 55 6 46 99
428 121 493 7 24 16 57 19 75 3 17 8 35 11 40 3 5 7 19 9 31 26 161 37 212 60
263 8 17 17 50 20 73 3 24 7 46 10 50 6 11 19 78 42 222 3 19 -3 78 -12 130
-9 52 -21 116 -26 142 -4 27 -13 54 -18 61 -6 7 -16 48 -22 91 -6 42 -15 88
-20 102 -5 13 -11 38 -14 56 -4 17 -12 45 -19 62 -18 41 -33 84 -40 118 -6 26
-72 128 -88 135 -5 2 -8 10 -8 17 0 7 -13 27 -30 45 -16 18 -30 35 -30 39 0 4
-8 16 -18 27 -9 10 -23 31 -29 47 -7 15 -17 27 -23 27 -5 0 -10 5 -10 11 0 6
-13 31 -30 56 -16 24 -30 47 -30 50 0 6 -78 112 -90 123 -3 3 -17 21 -30 40
-32 46 -196 210 -240 240 -19 13 -46 36 -60 50 -28 30 -213 170 -224 170 -4 0
-21 13 -39 30 -18 16 -37 30 -43 30 -7 0 -14 7 -17 15 -4 8 -23 25 -44 39 -21
13 -54 38 -73 55 -19 17 -40 31 -45 31 -6 0 -16 9 -22 19 -7 11 -34 34 -60 52
-26 18 -52 38 -58 44 -5 6 -32 29 -60 50 -27 22 -63 52 -78 67 -16 16 -34 28
-40 28 -7 0 -21 11 -31 25 -10 14 -34 35 -53 46 -19 12 -45 31 -58 43 -31 29
-110 86 -119 86 -4 0 -29 23 -57 50 -27 28 -56 50 -64 50 -18 0 -54 51 -61 88
-5 25 0 37 31 71 21 22 43 41 50 41 7 0 23 10 37 23 13 12 57 43 96 70 40 26
72 52 72 57 0 6 4 10 10 10 16 0 310 199 310 210 0 6 6 10 13 10 8 0 22 9 32
20 10 11 23 20 30 20 10 0 92 55 105 70 3 4 12 9 20 12 29 11 135 97 194 157
32 34 63 61 67 61 14 0 79 63 109 105 15 22 78 91 139 153 61 62 111 118 111
125 0 7 32 43 70 81 39 38 70 73 70 79 0 5 28 38 63 72 83 84 188 202 217 245
13 19 46 55 72 80 46 44 128 184 128 219 0 10 4 21 8 26 5 6 15 37 22 70 7 33
19 72 27 87 7 15 13 41 13 58 0 40 66 371 86 428 7 23 14 56 14 72 0 16 14 71
31 122 28 86 30 100 25 193 -16 302 -18 320 -46 378 -11 22 -20 46 -20 52 0 6
-13 32 -29 57 -16 25 -32 60 -36 78 -6 29 -37 100 -66 152 -5 10 -9 25 -9 35
0 15 -26 79 -51 125 -5 10 -9 23 -9 28 0 6 -9 30 -20 52 -11 23 -20 48 -20 55
0 7 -3 13 -7 13 -9 0 -33 49 -33 67 0 7 -3 13 -8 13 -7 0 -17 21 -42 90 -7 19
-17 39 -22 45 -4 5 -8 15 -8 22 0 8 -9 33 -20 55 -11 23 -20 46 -20 51 0 17
-62 137 -71 137 -5 0 -9 6 -9 14 0 27 -197 206 -227 206 -7 0 -13 5 -13 10 0
6 -51 44 -112 84 -62 41 -133 90 -158 110 -25 20 -48 36 -52 36 -4 0 -31 18
-60 40 -29 22 -58 40 -65 40 -6 0 -13 4 -15 8 -3 7 -24 22 -130 94 -15 10 -32
18 -38 18 -5 0 -10 4 -10 8 0 5 -12 15 -27 23 -16 8 -30 16 -33 19 -15 17 -96
70 -105 70 -6 0 -18 9 -28 20 -9 11 -23 20 -31 20 -7 0 -19 7 -26 15 -15 18
-271 145 -292 145 -8 0 -18 4 -24 10 -5 5 -49 14 -98 19 -48 6 -93 14 -100 20
-15 12 -94 26 -131 23 -16 -2 -59 6 -94 18 -35 11 -85 20 -111 20 -27 0 -77 9
-112 20 -34 11 -85 20 -113 20 -27 1 -68 8 -90 16 -22 8 -78 19 -125 23 -53 6
-99 17 -120 29 -28 16 -62 21 -172 26 -89 4 -139 3 -143 -4z"/>
</g>
</svg>
